<svg xmlns="http://www.w3.org/2000/svg" width="68" height="68"><title>HEADING LOGO</title><desc>Created with Sketch.</desc><defs><linearGradient id="a" x1="86.051%" x2="11.464%" y1="13.489%" y2="87.699%"><stop stop-color="#F5699E" offset="0%"/><stop stop-color="#9862E1" offset="77.315%"/><stop stop-color="#9862E1" offset="77.577%"/><stop stop-color="#9862E1" offset="78.7%"/><stop stop-color="#9862E1" offset="81.667%"/><stop stop-color="#6E73D6" offset="100%"/></linearGradient></defs><g fill="none"><g><g transform="translate(-123 -31) translate(123 31)"><circle cx="34" cy="34" r="34" fill="url(#a)"/><path stroke="#fff" d="M32.16 51.74L17.3 43.8V24.9L31 19.33l.13-.06-.1-.26-.14.06-13.7 5.57H17v19.29h.05l-.03.06.13.06 15 8 .14.07.1-.2h.04V32.63h-.18l-.05-.02-10.06-5.1-.13-.06-.12.25.13.06 10.1 5.1.06.04v18.84zm17.4-25.54h.04v19.3h-.2l.03.08-.13.05-13.73 5.58-.13.06-.1-.26.12-.05 13.73-5.58.1-.05v-19l-15-8-.12-.07.13-.25.14.07 15 8 .14.07-.03.06zm-15.12 5.73V32h-.28V18.4h.28v13.3l.06-.02 10.46-4.25.13-.06.1.27-.13.05-10.47 4.24-.13.06-.03-.07z" stroke-linecap="square"/></g></g></g></svg>