<svg xmlns="http://www.w3.org/2000/svg" width="188" height="197"><title>HERO LOGO</title><desc>Created with Sketch.</desc><defs><linearGradient id="a" x1="86.051%" x2="11.464%" y1="13.489%" y2="87.699%"><stop stop-color="#F5699E" offset="0%"/><stop stop-color="#9862E1" offset="77.315%"/><stop stop-color="#9862E1" offset="77.577%"/><stop stop-color="#9862E1" offset="78.7%"/><stop stop-color="#9862E1" offset="81.667%"/><stop stop-color="#6E73D6" offset="100%"/></linearGradient></defs><g fill="none"><g fill="url(#a)" transform="translate(-626 -235)"><path d="M713.37 429.48l-85.72-45.72v-109l79.02-32.1.77-.32-.62-1.53-.77.32-78.97 32.1H626V384.47h.3l-.18.34.73.38 86.54 46.16.72.4.6-1.13h.3V319.37h-1.04l-.27-.13-58.07-29.45-.73-.37-.75 1.48.74.37 58.06 29.45.4.2v108.58zm100.25-147.2h.3V393.53h-1.17l.2.46-.78.3-79.12 32.15-.77.3-.62-1.52.77-.3 79.12-32.15.73-.3V283l-86.52-46.16-.73-.4.77-1.44.73.4 86.55 46.14.72.4-.18.33zm-87.06 33v.37h-1.65v-78.3h1.66v76.63l.3-.13 60.33-24.5.75-.32.62 1.53-.76.3-60.32 24.5-.76.32-.16-.4z"/></g></g></svg>